<mxfile host="app.diagrams.net" modified="2021-10-28T13:32:39.144Z" agent="5.0 (Macintosh; Intel Mac OS X 10_15_7) AppleWebKit/537.36 (KHTML, like Gecko) Chrome/95.0.4638.54 Safari/537.36" etag="worB7DGlu71OCl208stj" version="15.5.9" type="github">
  <diagram id="xfx5DvELZFT4wy8bLo-e" name="第 1 页">
    <mxGraphModel dx="1426" dy="794" grid="1" gridSize="10" guides="1" tooltips="1" connect="1" arrows="1" fold="1" page="1" pageScale="1" pageWidth="827" pageHeight="1169" math="0" shadow="0">
      <root>
        <mxCell id="0" />
        <mxCell id="1" parent="0" />
        <mxCell id="mwWmsGYRI-4Dez6pMQhU-20" value="" style="rounded=0;whiteSpace=wrap;html=1;" vertex="1" parent="1">
          <mxGeometry x="270" y="120" width="800" height="640" as="geometry" />
        </mxCell>
        <mxCell id="mwWmsGYRI-4Dez6pMQhU-5" value="" style="edgeStyle=orthogonalEdgeStyle;rounded=0;orthogonalLoop=1;jettySize=auto;html=1;" edge="1" parent="1" source="mwWmsGYRI-4Dez6pMQhU-1" target="mwWmsGYRI-4Dez6pMQhU-4">
          <mxGeometry relative="1" as="geometry" />
        </mxCell>
        <mxCell id="mwWmsGYRI-4Dez6pMQhU-6" value="获取到这些楼盘" style="edgeLabel;html=1;align=center;verticalAlign=middle;resizable=0;points=[];" vertex="1" connectable="0" parent="mwWmsGYRI-4Dez6pMQhU-5">
          <mxGeometry x="0.1333" y="2" relative="1" as="geometry">
            <mxPoint as="offset" />
          </mxGeometry>
        </mxCell>
        <mxCell id="mwWmsGYRI-4Dez6pMQhU-1" value="住户（xml配置&lt;br&gt;配置类等）" style="rounded=0;whiteSpace=wrap;html=1;" vertex="1" parent="1">
          <mxGeometry x="750" y="360" width="120" height="60" as="geometry" />
        </mxCell>
        <mxCell id="mwWmsGYRI-4Dez6pMQhU-3" value="获取" style="edgeStyle=orthogonalEdgeStyle;rounded=0;orthogonalLoop=1;jettySize=auto;html=1;" edge="1" parent="1" source="mwWmsGYRI-4Dez6pMQhU-2" target="mwWmsGYRI-4Dez6pMQhU-1">
          <mxGeometry relative="1" as="geometry" />
        </mxCell>
        <mxCell id="mwWmsGYRI-4Dez6pMQhU-2" value="销售（BeanDefinitionReader）" style="rounded=0;whiteSpace=wrap;html=1;" vertex="1" parent="1">
          <mxGeometry x="740" y="235" width="140" height="70" as="geometry" />
        </mxCell>
        <mxCell id="mwWmsGYRI-4Dez6pMQhU-8" value="" style="edgeStyle=orthogonalEdgeStyle;rounded=0;orthogonalLoop=1;jettySize=auto;html=1;" edge="1" parent="1" source="mwWmsGYRI-4Dez6pMQhU-4" target="mwWmsGYRI-4Dez6pMQhU-7">
          <mxGeometry relative="1" as="geometry" />
        </mxCell>
        <mxCell id="mwWmsGYRI-4Dez6pMQhU-4" value="BeanDefinitionScanner会进行扫描，从而得到那些住户会买柜子（带有@Component注解）" style="rounded=0;whiteSpace=wrap;html=1;" vertex="1" parent="1">
          <mxGeometry x="740" y="480" width="140" height="80" as="geometry" />
        </mxCell>
        <mxCell id="mwWmsGYRI-4Dez6pMQhU-13" value="" style="edgeStyle=orthogonalEdgeStyle;rounded=0;orthogonalLoop=1;jettySize=auto;html=1;" edge="1" parent="1" source="mwWmsGYRI-4Dez6pMQhU-7" target="mwWmsGYRI-4Dez6pMQhU-12">
          <mxGeometry relative="1" as="geometry" />
        </mxCell>
        <mxCell id="mwWmsGYRI-4Dez6pMQhU-7" value="得到需要买柜子的住户（带有@Component注解的class）" style="rounded=0;whiteSpace=wrap;html=1;" vertex="1" parent="1">
          <mxGeometry x="750" y="620" width="120" height="60" as="geometry" />
        </mxCell>
        <mxCell id="mwWmsGYRI-4Dez6pMQhU-10" value="销售（BeanDefinitionReader）会去获取住户的一些信息，之后进行一些筛选、扫描（BeanDefinitionScanner）获取到真正需要买柜子的住户（带有@Component注解的class），例如从100个住户中筛选出10个需要买的住户" style="text;html=1;strokeColor=none;fillColor=none;align=center;verticalAlign=middle;whiteSpace=wrap;rounded=0;" vertex="1" parent="1">
          <mxGeometry x="340" y="220" width="340" height="160" as="geometry" />
        </mxCell>
        <mxCell id="mwWmsGYRI-4Dez6pMQhU-11" value="1" style="text;html=1;strokeColor=#d79b00;fillColor=#ffe6cc;align=center;verticalAlign=middle;whiteSpace=wrap;rounded=0;" vertex="1" parent="1">
          <mxGeometry x="780" y="170" width="60" height="30" as="geometry" />
        </mxCell>
        <mxCell id="mwWmsGYRI-4Dez6pMQhU-15" value="" style="edgeStyle=orthogonalEdgeStyle;rounded=0;orthogonalLoop=1;jettySize=auto;html=1;" edge="1" parent="1" source="mwWmsGYRI-4Dez6pMQhU-12" target="mwWmsGYRI-4Dez6pMQhU-14">
          <mxGeometry relative="1" as="geometry" />
        </mxCell>
        <mxCell id="mwWmsGYRI-4Dez6pMQhU-18" value="买橱柜" style="edgeLabel;html=1;align=center;verticalAlign=middle;resizable=0;points=[];" vertex="1" connectable="0" parent="mwWmsGYRI-4Dez6pMQhU-15">
          <mxGeometry x="0.425" y="1" relative="1" as="geometry">
            <mxPoint as="offset" />
          </mxGeometry>
        </mxCell>
        <mxCell id="mwWmsGYRI-4Dez6pMQhU-17" value="" style="edgeStyle=orthogonalEdgeStyle;rounded=0;orthogonalLoop=1;jettySize=auto;html=1;" edge="1" parent="1" source="mwWmsGYRI-4Dez6pMQhU-12" target="mwWmsGYRI-4Dez6pMQhU-16">
          <mxGeometry relative="1" as="geometry" />
        </mxCell>
        <mxCell id="mwWmsGYRI-4Dez6pMQhU-19" value="买衣柜" style="edgeLabel;html=1;align=center;verticalAlign=middle;resizable=0;points=[];" vertex="1" connectable="0" parent="mwWmsGYRI-4Dez6pMQhU-17">
          <mxGeometry x="0.4267" relative="1" as="geometry">
            <mxPoint as="offset" />
          </mxGeometry>
        </mxCell>
        <mxCell id="mwWmsGYRI-4Dez6pMQhU-12" value="根据客户的需求&lt;br&gt;（@Lazy，@Scope注解）" style="rounded=0;whiteSpace=wrap;html=1;" vertex="1" parent="1">
          <mxGeometry x="1121" y="620" width="120" height="60" as="geometry" />
        </mxCell>
        <mxCell id="mwWmsGYRI-4Dez6pMQhU-14" value="橱柜店&lt;br&gt;（@ApplicationContext）" style="whiteSpace=wrap;html=1;rounded=0;" vertex="1" parent="1">
          <mxGeometry x="1250" y="340" width="300" height="190" as="geometry" />
        </mxCell>
        <mxCell id="mwWmsGYRI-4Dez6pMQhU-16" value="衣柜店&lt;br&gt;（xmlApplicationContext）" style="whiteSpace=wrap;html=1;rounded=0;" vertex="1" parent="1">
          <mxGeometry x="1250" y="740" width="300" height="170" as="geometry" />
        </mxCell>
        <mxCell id="mwWmsGYRI-4Dez6pMQhU-24" value="" style="edgeStyle=orthogonalEdgeStyle;rounded=0;orthogonalLoop=1;jettySize=auto;html=1;" edge="1" parent="1" source="mwWmsGYRI-4Dez6pMQhU-21" target="mwWmsGYRI-4Dez6pMQhU-23">
          <mxGeometry relative="1" as="geometry" />
        </mxCell>
        <mxCell id="mwWmsGYRI-4Dez6pMQhU-27" value="根据客户需求生成设计图纸" style="edgeLabel;html=1;align=center;verticalAlign=middle;resizable=0;points=[];" vertex="1" connectable="0" parent="mwWmsGYRI-4Dez6pMQhU-24">
          <mxGeometry x="0.0432" y="-1" relative="1" as="geometry">
            <mxPoint as="offset" />
          </mxGeometry>
        </mxCell>
        <mxCell id="mwWmsGYRI-4Dez6pMQhU-21" value="设计师&lt;br&gt;@BeanDefinitionRegistry" style="rounded=0;whiteSpace=wrap;html=1;" vertex="1" parent="1">
          <mxGeometry x="1315" y="470" width="175" height="60" as="geometry" />
        </mxCell>
        <mxCell id="mwWmsGYRI-4Dez6pMQhU-22" value="设计师&lt;br&gt;@BeanDefinitionRegistry" style="rounded=0;whiteSpace=wrap;html=1;" vertex="1" parent="1">
          <mxGeometry x="1315" y="850" width="170" height="60" as="geometry" />
        </mxCell>
        <mxCell id="mwWmsGYRI-4Dez6pMQhU-23" value="图纸&lt;br&gt;@BeanDefinition" style="whiteSpace=wrap;html=1;rounded=0;" vertex="1" parent="1">
          <mxGeometry x="1680" y="630" width="120" height="60" as="geometry" />
        </mxCell>
        <mxCell id="mwWmsGYRI-4Dez6pMQhU-25" value="" style="endArrow=classic;html=1;rounded=0;entryX=0.5;entryY=1;entryDx=0;entryDy=0;exitX=1;exitY=0.5;exitDx=0;exitDy=0;" edge="1" parent="1" source="mwWmsGYRI-4Dez6pMQhU-22" target="mwWmsGYRI-4Dez6pMQhU-23">
          <mxGeometry width="50" height="50" relative="1" as="geometry">
            <mxPoint x="1180" y="630" as="sourcePoint" />
            <mxPoint x="1230" y="580" as="targetPoint" />
            <Array as="points">
              <mxPoint x="1740" y="880" />
            </Array>
          </mxGeometry>
        </mxCell>
        <mxCell id="mwWmsGYRI-4Dez6pMQhU-26" value="根据客户需求生成设计图纸" style="edgeLabel;html=1;align=center;verticalAlign=middle;resizable=0;points=[];" vertex="1" connectable="0" parent="mwWmsGYRI-4Dez6pMQhU-25">
          <mxGeometry x="-0.0637" y="-1" relative="1" as="geometry">
            <mxPoint as="offset" />
          </mxGeometry>
        </mxCell>
      </root>
    </mxGraphModel>
  </diagram>
</mxfile>
